<svg width="39" height="39" viewBox="0 0 39 39" fill="none" xmlns="http://www.w3.org/2000/svg">
<circle cx="19.2125" cy="19.2125" r="19.2125" fill="white"/>
<path d="M18.468 28.2847C15.9715 28.2847 13.475 27.8883 11.1071 27.0954C10.2071 26.7847 9.52137 26.1525 9.22136 25.3275C8.91064 24.5025 9.01779 23.5918 9.51065 22.7774L10.7428 20.731C11 20.3024 11.2357 19.4452 11.2357 18.9416V15.8451C11.2357 11.8593 14.4822 8.61282 18.468 8.61282C22.4538 8.61282 25.7003 11.8593 25.7003 15.8451V18.9416C25.7003 19.4345 25.9361 20.3024 26.1932 20.7417L27.4147 22.7774C27.8754 23.5489 27.9611 24.4811 27.6504 25.3275C27.3397 26.174 26.6646 26.8168 25.8182 27.0954C23.461 27.8883 20.9645 28.2847 18.468 28.2847ZM18.468 10.22C15.3715 10.22 12.8429 12.7379 12.8429 15.8451V18.9416C12.8429 19.7238 12.5214 20.881 12.125 21.556L10.8928 23.6025C10.6571 23.9989 10.5928 24.4168 10.7321 24.7704C10.8607 25.1346 11.1821 25.4132 11.6214 25.5632C16.1001 27.0633 20.8466 27.0633 25.3253 25.5632C25.711 25.4347 26.0111 25.1454 26.1503 24.7596C26.2896 24.3739 26.2575 23.956 26.0432 23.6025L24.811 21.556C24.4039 20.8595 24.0932 19.7131 24.0932 18.9309V15.8451C24.0932 12.7379 21.5752 10.22 18.468 10.22Z" fill="#292D32"/>
<path d="M20.4609 10.5092C20.3859 10.5092 20.3109 10.4985 20.2359 10.4771C19.9252 10.3914 19.6251 10.3271 19.3359 10.2842C18.4251 10.1664 17.5465 10.2307 16.7215 10.4771C16.4215 10.5735 16.1001 10.4771 15.8965 10.2521C15.6929 10.0271 15.6286 9.70566 15.7465 9.41636C16.1858 8.29134 17.2572 7.55203 18.4787 7.55203C19.7001 7.55203 20.7716 8.28062 21.2109 9.41636C21.318 9.70566 21.2645 10.0271 21.0609 10.2521C20.9002 10.4235 20.6752 10.5092 20.4609 10.5092Z" fill="#292D32"/>
<path d="M18.4679 30.7276C17.4072 30.7276 16.3786 30.299 15.6286 29.549C14.8785 28.799 14.45 27.7704 14.45 26.7097H16.0571C16.0571 27.3418 16.3143 27.9633 16.7643 28.4133C17.2143 28.8633 17.8357 29.1204 18.4679 29.1204C19.7965 29.1204 20.8787 28.0383 20.8787 26.7097H22.4859C22.4859 28.9276 20.6858 30.7276 18.4679 30.7276Z" fill="#292D32"/>
<circle cx="28.5684" cy="11.2122" r="2.73563" fill="#FF0000"/>
</svg>
