<svg width="31" height="31" viewBox="0 0 31 31" fill="none" xmlns="http://www.w3.org/2000/svg">
<circle cx="15.1111" cy="15.1111" r="15.1111" fill="#F0F3FC"/>
<path d="M9.99003 10.3406C9.88892 10.4821 9.88892 10.6828 9.88892 11.0833C9.88892 11.4839 9.88892 11.6846 9.99003 11.8261C10.0253 11.876 10.0686 11.9197 10.1184 11.9552C10.2599 12.0556 10.4606 12.0556 10.8611 12.0556C11.2617 12.0556 11.4624 12.0556 11.6039 11.9544C11.6539 11.9192 11.6975 11.8758 11.733 11.8261C11.8334 11.6846 11.8334 11.4839 11.8334 11.0833C11.8334 10.6828 11.8334 10.4821 11.7322 10.3406C11.697 10.2906 11.6536 10.247 11.6039 10.2114C11.4624 10.1111 11.2617 10.1111 10.8611 10.1111C10.4606 10.1111 10.2599 10.1111 10.1184 10.2122C10.0684 10.2475 10.0256 10.2908 9.99003 10.3406Z" fill="#0677DE"/>
<path fill-rule="evenodd" clip-rule="evenodd" d="M12.77 7.22555C13.1145 7.25822 13.435 7.32978 13.729 7.50944C14.0167 7.686 14.2586 7.92789 14.4352 8.21566C14.6149 8.50967 14.6864 8.83011 14.7191 9.17466C14.7502 9.50366 14.7502 9.90889 14.7502 10.3942V11.3182C14.7502 12.0167 14.7502 12.6 14.688 13.062C14.6226 13.5504 14.478 13.9914 14.1233 14.3453C13.7694 14.7 13.3284 14.8447 12.84 14.91C12.378 14.9722 11.7946 14.9722 11.0962 14.9722H10.1722C9.68686 14.9722 9.28163 14.9722 8.95263 14.9411C8.60808 14.9084 8.28763 14.8369 7.99363 14.6572C7.70579 14.4808 7.46379 14.2388 7.28741 13.951C7.10775 13.657 7.03619 13.3366 7.00352 12.992C6.97241 12.663 6.97241 12.2578 6.97241 11.7724V11.7149C6.97241 10.976 6.97241 10.3802 7.0183 9.90033C7.06497 9.40567 7.16452 8.97478 7.40252 8.58744C7.64279 8.19509 7.97248 7.86514 8.36463 7.62455C8.75197 7.38655 9.18286 7.287 9.67752 7.24033C10.1574 7.19444 10.7532 7.19444 11.4921 7.19444H11.5496C12.035 7.19444 12.4402 7.19444 12.7692 7.22555M12.6587 8.38678C12.392 8.36189 12.0435 8.36111 11.5224 8.36111C10.747 8.36111 10.2072 8.36111 9.78875 8.40155C9.37963 8.44044 9.14786 8.51278 8.97441 8.61933C8.73924 8.76353 8.5415 8.96128 8.3973 9.19644C8.29075 9.36989 8.21841 9.60166 8.17952 10.0108C8.13908 10.43 8.13908 10.969 8.13908 11.7444C8.13908 12.2656 8.13908 12.614 8.16475 12.8816C8.18963 13.1406 8.23319 13.2611 8.28219 13.3412C8.3623 13.4719 8.47275 13.5823 8.60341 13.6624C8.68352 13.7114 8.80408 13.755 9.0623 13.7791C9.33063 13.8048 9.67986 13.8056 10.2002 13.8056H11.0557C11.8055 13.8056 12.3095 13.804 12.6852 13.7534C13.0437 13.7052 13.1977 13.622 13.2989 13.5201C13.4 13.419 13.4832 13.2658 13.5322 12.9072C13.582 12.5316 13.5835 12.0276 13.5835 11.2778V10.4222C13.5835 9.90111 13.5835 9.55266 13.5579 9.28511C13.533 9.02611 13.4894 8.90555 13.4404 8.82544C13.3602 8.6945 13.2501 8.58443 13.1192 8.50422C13.0391 8.45522 12.9185 8.41166 12.6603 8.38755" fill="#0677DE"/>
<path d="M18.9346 10.3406C18.8335 10.4821 18.8335 10.6828 18.8335 11.0833C18.8335 11.4839 18.8335 11.6846 18.9346 11.8261C18.9698 11.876 19.0132 11.9197 19.0629 11.9552C19.2045 12.0556 19.4052 12.0556 19.8057 12.0556C20.2063 12.0556 20.4069 12.0556 20.5485 11.9544C20.5984 11.9192 20.6421 11.8758 20.6776 11.8261C20.7779 11.6846 20.7779 11.4839 20.7779 11.0833C20.7779 10.6828 20.7779 10.4821 20.6768 10.3406C20.6416 10.2906 20.5982 10.247 20.5485 10.2114C20.4069 10.1111 20.2063 10.1111 19.8057 10.1111C19.4052 10.1111 19.2045 10.1111 19.0629 10.2122C19.013 10.2475 18.9701 10.2908 18.9346 10.3406Z" fill="#0677DE"/>
<path fill-rule="evenodd" clip-rule="evenodd" d="M19.1165 7.19444H19.1741C19.913 7.19444 20.5087 7.19444 20.9886 7.24033C21.4833 7.287 21.9142 7.38655 22.3015 7.62455C22.6943 7.86489 23.0249 8.19466 23.2644 8.58744C23.5024 8.97478 23.602 9.40567 23.6486 9.90033C23.6945 10.3802 23.6945 10.976 23.6945 11.7149V11.7724C23.6945 12.2578 23.6945 12.663 23.6634 12.992C23.6307 13.3366 23.5592 13.657 23.3795 13.951C23.203 14.2388 22.9611 14.4807 22.6733 14.6572C22.3793 14.8369 22.0589 14.9084 21.7143 14.9411C21.3853 14.9722 20.9801 14.9722 20.4947 14.9722H19.5707C18.8715 14.9722 18.289 14.9722 17.827 14.91C17.3385 14.8447 16.8975 14.7 16.5436 14.3453C16.189 13.9914 16.0443 13.5504 15.979 13.062C15.9167 12.6 15.9167 12.0167 15.9167 11.3182V10.3942C15.9167 9.90889 15.9167 9.50366 15.9479 9.17466C15.9805 8.83011 16.0521 8.50967 16.2317 8.21566C16.4081 7.92782 16.6501 7.68582 16.938 7.50944C17.232 7.32978 17.5524 7.25822 17.897 7.22555C18.226 7.19444 18.6312 7.19444 19.1165 7.19444ZM18.0074 8.38678C17.7484 8.41166 17.6279 8.45522 17.5477 8.50422C17.4168 8.58443 17.3067 8.6945 17.2265 8.82544C17.1775 8.90555 17.134 9.02611 17.1099 9.28433C17.0842 9.55266 17.0834 9.90189 17.0834 10.4222V11.2778C17.0834 12.0276 17.085 12.5316 17.1347 12.9072C17.1837 13.2658 17.267 13.4198 17.3681 13.5209C17.4692 13.622 17.6232 13.7052 17.9825 13.7542C18.3574 13.804 18.8614 13.8056 19.6112 13.8056H20.4667C20.9879 13.8056 21.3363 13.8056 21.6039 13.7799C21.8629 13.755 21.9834 13.7114 22.0635 13.6624C22.1945 13.5822 22.3045 13.4722 22.3847 13.3412C22.4337 13.2611 22.4773 13.1406 22.5014 12.8823C22.5271 12.614 22.5279 12.2648 22.5279 11.7444C22.5279 10.969 22.5279 10.4292 22.4874 10.0108C22.4485 9.60166 22.3762 9.36989 22.2696 9.19644C22.1254 8.96128 21.9277 8.76353 21.6925 8.61933C21.5191 8.51278 21.2873 8.44044 20.8782 8.40155C20.4597 8.36189 19.92 8.36111 19.1445 8.36111C18.6234 8.36111 18.275 8.36111 18.0074 8.38678Z" fill="#0677DE"/>
<path d="M9.88892 20.0278C9.88892 19.6272 9.88892 19.4266 9.99003 19.285C10.0253 19.2351 10.0686 19.1914 10.1184 19.1559C10.2599 19.0556 10.4606 19.0556 10.8611 19.0556C11.2617 19.0556 11.4624 19.0556 11.6039 19.1567C11.6539 19.1919 11.6975 19.2353 11.733 19.285C11.8334 19.4266 11.8334 19.6272 11.8334 20.0278C11.8334 20.4283 11.8334 20.629 11.7322 20.7706C11.697 20.8205 11.6536 20.8641 11.6039 20.8997C11.4624 21 11.2617 21 10.8611 21C10.4606 21 10.2599 21 10.1184 20.8989C10.0684 20.8637 10.0248 20.8203 9.98925 20.7706C9.88892 20.629 9.88892 20.4283 9.88892 20.0278Z" fill="#0677DE"/>
<path fill-rule="evenodd" clip-rule="evenodd" d="M12.84 16.2011C13.3284 16.2664 13.7694 16.4111 14.1233 16.7658C14.478 17.1197 14.6226 17.5607 14.688 18.0491C14.7502 18.5111 14.7502 19.0937 14.7502 19.7929V20.7169C14.7502 21.2022 14.7502 21.6074 14.7191 21.9364C14.6864 22.2802 14.6149 22.6014 14.4352 22.8954C14.2586 23.1832 14.0167 23.4251 13.729 23.6017C13.435 23.7821 13.1145 23.8529 12.77 23.8856C12.441 23.9167 12.0357 23.9167 11.5504 23.9167H11.4929C10.754 23.9167 10.1582 23.9167 9.6783 23.8708C9.18363 23.8241 8.75275 23.7246 8.36541 23.4866C7.97297 23.2461 7.64302 22.9161 7.40252 22.5237C7.16452 22.1363 7.06497 21.7054 7.0183 21.2108C6.97241 20.7309 6.97241 20.1351 6.97241 19.3962V19.3387C6.97241 18.8533 6.97241 18.4481 7.00352 18.1191C7.03619 17.7753 7.10775 17.4541 7.28741 17.1601C7.46379 16.8723 7.70579 16.6303 7.99363 16.4539C8.28763 16.2742 8.60808 16.2027 8.95263 16.17C9.28163 16.1389 9.68686 16.1389 10.1722 16.1389H11.0962C11.7946 16.1389 12.378 16.1389 12.84 16.2011ZM12.6844 17.3569C12.3095 17.3071 11.8055 17.3056 11.0557 17.3056H10.2002C9.67908 17.3056 9.33063 17.3056 9.06308 17.332C8.80408 17.3561 8.68352 17.3997 8.60341 17.4487C8.47247 17.5289 8.3624 17.6389 8.28219 17.7699C8.23319 17.85 8.18963 17.9706 8.16552 18.2288C8.13986 18.4971 8.13908 18.8463 8.13908 19.3667C8.13908 20.1421 8.13908 20.6819 8.17952 21.1003C8.21841 21.5094 8.29075 21.7412 8.3973 21.9147C8.54119 22.1496 8.73952 22.3479 8.97441 22.4918C9.14786 22.5983 9.37963 22.6707 9.78875 22.7096C10.2072 22.7492 10.747 22.75 11.5224 22.75C12.0435 22.75 12.392 22.75 12.6595 22.7236C12.9185 22.6994 13.0391 22.6559 13.1192 22.6069C13.2501 22.5267 13.3602 22.4166 13.4404 22.2857C13.4894 22.2056 13.533 22.085 13.5571 21.8268C13.5827 21.5584 13.5835 21.2092 13.5835 20.6889V19.8333C13.5835 19.0836 13.582 18.5796 13.5314 18.2039C13.4832 17.8453 13.4 17.6913 13.2981 17.5902C13.197 17.4891 13.0437 17.4059 12.6852 17.3569" fill="#0677DE"/>
<path d="M19.1927 16.1389H20.7779V17.3056H19.2223C18.6639 17.3056 18.289 17.3056 18.0035 17.3351C17.7274 17.3631 17.5999 17.4129 17.5159 17.4697C17.4097 17.5406 17.3185 17.6318 17.2475 17.738C17.1907 17.822 17.141 17.9496 17.113 18.2257C17.0842 18.5111 17.0834 18.8868 17.0834 19.4444H15.9167V19.4149C15.9167 18.8938 15.9167 18.459 15.9525 18.1074C15.9899 17.7388 16.0715 17.3973 16.2776 17.0893C16.4332 16.856 16.6339 16.6553 16.8672 16.4998C17.1752 16.2937 17.5166 16.212 17.8853 16.1747C18.2369 16.1389 18.6724 16.1389 19.1927 16.1389ZM15.9167 23.3333V21H17.0834V23.3333C17.0834 23.488 17.022 23.6364 16.9126 23.7458C16.8032 23.8552 16.6548 23.9167 16.5001 23.9167C16.3454 23.9167 16.197 23.8552 16.0876 23.7458C15.9782 23.6364 15.9167 23.488 15.9167 23.3333ZM23.6945 16.7222C23.6945 16.5675 23.6331 16.4191 23.5237 16.3097C23.4143 16.2003 23.2659 16.1389 23.1112 16.1389C22.9565 16.1389 22.8081 16.2003 22.6987 16.3097C22.5893 16.4191 22.5279 16.5675 22.5279 16.7222V19.4444H23.6945V16.7222ZM22.5279 21C22.5279 21.3702 22.5279 21.6191 22.5146 21.8112C22.5014 21.9987 22.4789 22.0897 22.454 22.1496C22.4051 22.2676 22.3335 22.3749 22.2431 22.4652C22.1528 22.5556 22.0455 22.6272 21.9274 22.6761C21.8675 22.701 21.7765 22.7236 21.5891 22.7368C21.397 22.75 21.1481 22.75 20.7779 22.75H19.2223V23.9167H20.7973C21.1434 23.9167 21.432 23.9167 21.6684 23.9011C21.915 23.884 22.1483 23.8474 22.3739 23.7533C22.6334 23.6459 22.8693 23.4884 23.068 23.2899C23.2667 23.0913 23.4244 22.8555 23.532 22.596C23.6253 22.3704 23.6619 22.1371 23.6782 21.8906C23.6945 21.6541 23.6945 21.3656 23.6945 21.0194V21H22.5279ZM18.576 19.012C18.4445 19.2088 18.4445 19.4818 18.4445 20.0278C18.4445 20.5738 18.4445 20.8468 18.576 21.0436C18.6326 21.1282 18.7053 21.2008 18.7899 21.2574C18.9866 21.3889 19.2596 21.3889 19.8056 21.3889C20.3516 21.3889 20.6246 21.3889 20.8214 21.2574C20.906 21.2008 20.9787 21.1282 21.0353 21.0436C21.1667 20.8468 21.1667 20.5738 21.1667 20.0278C21.1667 19.4818 21.1667 19.2088 21.0353 19.012C20.9787 18.9274 20.906 18.8547 20.8214 18.7981C20.6246 18.6667 20.3516 18.6667 19.8056 18.6667C19.2596 18.6667 18.9866 18.6667 18.7899 18.7981C18.7053 18.8547 18.6326 18.9274 18.576 19.012Z" fill="#0677DE"/>
</svg>
