<svg width="38" height="38" viewBox="0 0 38 38" fill="none" xmlns="http://www.w3.org/2000/svg">
<circle cx="19" cy="19" r="19" fill="white"/>
<path d="M18.9217 7C16.5638 7 14.2589 7.69919 12.2984 9.00916C10.3378 10.3191 8.80981 12.181 7.90749 14.3594C7.00517 16.5378 6.76908 18.9349 7.22908 21.2475C7.68908 23.5601 8.82451 25.6843 10.4918 27.3516C12.1591 29.0188 14.2833 30.1543 16.5959 30.6143C18.9085 31.0743 21.3055 30.8382 23.4839 29.9359C25.6623 29.0335 27.5242 27.5055 28.8342 25.545C30.1442 23.5845 30.8434 21.2796 30.8434 18.9217C30.8434 17.3561 30.535 15.8059 29.9359 14.3594C29.3368 12.913 28.4586 11.5988 27.3516 10.4918C26.2445 9.38475 24.9303 8.5066 23.4839 7.90748C22.0375 7.30836 20.4873 7 18.9217 7ZM18.9217 28.459C17.0354 28.459 15.1914 27.8997 13.623 26.8517C12.0546 25.8037 10.8322 24.3142 10.1103 22.5715C9.38847 20.8287 9.1996 18.9111 9.5676 17.061C9.9356 15.211 10.8439 13.5116 12.1778 12.1778C13.5116 10.8439 15.211 9.93559 17.061 9.56759C18.9111 9.19959 20.8287 9.38846 22.5715 10.1103C24.3142 10.8322 25.8037 12.0546 26.8517 13.623C27.8997 15.1914 28.459 17.0354 28.459 18.9217C28.459 21.4511 27.4542 23.877 25.6656 25.6656C23.877 27.4542 21.4511 28.459 18.9217 28.459Z" fill="url(#paint0_linear_1700_1573)"/>
<path d="M19.1814 11.7683C18.0747 11.7683 17.0134 12.2079 16.2309 12.9904C15.4484 13.7729 15.0088 14.8342 15.0088 15.9409C15.0088 16.2571 15.1344 16.5603 15.358 16.7839C15.5815 17.0074 15.8848 17.1331 16.201 17.1331C16.5171 17.1331 16.8204 17.0074 17.0439 16.7839C17.2675 16.5603 17.3931 16.2571 17.3931 15.9409C17.3931 15.5872 17.498 15.2415 17.6945 14.9474C17.891 14.6533 18.1703 14.4241 18.497 14.2888C18.8238 14.1534 19.1834 14.118 19.5302 14.187C19.8771 14.256 20.1958 14.4263 20.4459 14.6764C20.696 14.9265 20.8663 15.2451 20.9353 15.592C21.0043 15.9389 20.9689 16.2985 20.8335 16.6252C20.6982 16.952 20.4689 17.2313 20.1749 17.4278C19.8808 17.6243 19.5351 17.7291 19.1814 17.7291C18.8652 17.7291 18.562 17.8547 18.3384 18.0783C18.1148 18.3019 17.9892 18.6051 17.9892 18.9213V21.3056C17.9892 21.6218 18.1148 21.9251 18.3384 22.1486C18.562 22.3722 18.8652 22.4978 19.1814 22.4978C19.4976 22.4978 19.8008 22.3722 20.0244 22.1486C20.2479 21.9251 20.3735 21.6218 20.3735 21.3056V19.9227C21.3369 19.6414 22.1662 19.0213 22.7084 18.1767C23.2506 17.3322 23.4693 16.3201 23.3241 15.327C23.1789 14.3339 22.6797 13.4268 21.9183 12.7728C21.157 12.1188 20.185 11.7621 19.1814 11.7683Z" fill="url(#paint1_linear_1700_1573)"/>
<path d="M19.1812 26.0743C19.8396 26.0743 20.3733 25.5406 20.3733 24.8822C20.3733 24.2238 19.8396 23.69 19.1812 23.69C18.5228 23.69 17.989 24.2238 17.989 24.8822C17.989 25.5406 18.5228 26.0743 19.1812 26.0743Z" fill="url(#paint2_linear_1700_1573)"/>
<defs>
<linearGradient id="paint0_linear_1700_1573" x1="18.9217" y1="7" x2="18.9217" y2="30.8434" gradientUnits="userSpaceOnUse">
<stop stop-color="#579FE1"/>
<stop offset="1" stop-color="#2290F3"/>
</linearGradient>
<linearGradient id="paint1_linear_1700_1573" x1="19.1883" y1="11.7682" x2="19.1883" y2="22.4978" gradientUnits="userSpaceOnUse">
<stop stop-color="#579FE1"/>
<stop offset="1" stop-color="#2290F3"/>
</linearGradient>
<linearGradient id="paint2_linear_1700_1573" x1="19.1812" y1="23.69" x2="19.1812" y2="26.0743" gradientUnits="userSpaceOnUse">
<stop stop-color="#579FE1"/>
<stop offset="1" stop-color="#2290F3"/>
</linearGradient>
</defs>
</svg>
